HIERARCHY
ROOT Hips
{
	OFFSET 0.000000 0.000000 0.000000
	CHANNELS 6 Xposition Yposition Zposition Xrotation Yrotation Zrotation
	JOINT LeftUpLeg_virtual
	{
		OFFSET 0.000000 0.000000 0.000000
		CHANNELS 3 Xrotation Yrotation Zrotation
		JOINT LeftUpLeg
		{
			OFFSET 10.205400 -3.823500 0.155100
			CHANNELS 3 Xrotation Yrotation Zrotation
			JOINT LeftLeg
			{
				OFFSET 0.708757 -12.982077 0.567790
				CHANNELS 3 Xrotation Yrotation Zrotation
				JOINT LeftFoot
				{
					OFFSET -0.708756 -10.717838 -2.184338
					CHANNELS 3 Xrotation Yrotation Zrotation
					JOINT LeftToeBase
					{
						OFFSET 0.108149 -7.191104 7.560241
						CHANNELS 3 Xrotation Yrotation Zrotation
						JOINT LeftToe_End
						{
							OFFSET 0.070230 0.081724 4.490308
							CHANNELS 3 Xrotation Yrotation Zrotation
							End Site
							{
								OFFSET 0 0 0
							}
						}
					}
				}
			}
		}
	}
	JOINT RightUpLeg_virtual
	{
		OFFSET 0.000000 0.000000 0.000000
		CHANNELS 3 Xrotation Yrotation Zrotation
		JOINT RightUpLeg
		{
			OFFSET -10.205400 -3.823500 0.005500
			CHANNELS 3 Xrotation Yrotation Zrotation
			JOINT RightLeg
			{
				OFFSET -0.708756 -12.982134 0.610632
				CHANNELS 3 Xrotation Yrotation Zrotation
				JOINT RightFoot
				{
					OFFSET 0.708754 -10.717769 -1.945823
					CHANNELS 3 Xrotation Yrotation Zrotation
					JOINT RightToeBase
					{
						OFFSET -0.108140 -7.191069 7.372968
						CHANNELS 3 Xrotation Yrotation Zrotation
						JOINT RightToe_End
						{
							OFFSET -0.070227 0.081735 4.479403
							CHANNELS 3 Xrotation Yrotation Zrotation
							End Site
							{
								OFFSET 0 0 0
							}
						}
					}
				}
			}
		}
	}
	JOINT Spine_virtual
	{
		OFFSET 0.000000 0.000000 0.000000
		CHANNELS 3 Xrotation Yrotation Zrotation
		JOINT Spine
		{
			OFFSET 0.000000 6.876099 0.125700
			CHANNELS 3 Xrotation Yrotation Zrotation
			JOINT Spine1
			{
				OFFSET 0.000000 5.730043 0.104720
				CHANNELS 3 Xrotation Yrotation Zrotation
				JOINT Spine1_split
				{
					OFFSET 0.000000 5.730043 0.104720
					CHANNELS 3 Xrotation Yrotation Zrotation
					JOINT Spine2
					{
						OFFSET 0.000000 5.730043 0.104720
						CHANNELS 3 Xrotation Yrotation Zrotation
						JOINT Neck_virtual
						{
							OFFSET 0.000000 0.000000 0.000000
							CHANNELS 3 Xrotation Yrotation Zrotation
							JOINT Neck
							{
								OFFSET 0.000000 10.314075 0.188496
								CHANNELS 3 Xrotation Yrotation Zrotation
								JOINT Head
								{
									OFFSET 0.000000 7.643700 -2.377400
									CHANNELS 3 Xrotation Yrotation Zrotation
									JOINT HeadTop_End
									{
										OFFSET 0.000000 43.788605 -13.619600
										CHANNELS 3 Xrotation Yrotation Zrotation
										End Site
										{
											OFFSET 0 0 0
										}
									}
								}
							}
						}
						JOINT LeftShoulder_virtual
						{
							OFFSET 0.000000 0.000000 0.000000
							CHANNELS 3 Xrotation Yrotation Zrotation
							JOINT LeftShoulder
							{
								OFFSET 2.196100 4.412489 0.087492
								CHANNELS 3 Xrotation Yrotation Zrotation
								JOINT LeftShoulder_split
								{
									OFFSET 2.196100 4.412489 0.087492
									CHANNELS 3 Xrotation Yrotation Zrotation
									JOINT LeftArm
									{
										OFFSET 8.771219 -2.981674 -0.026999
										CHANNELS 3 Xrotation Yrotation Zrotation
										JOINT LeftForeArm
										{
											OFFSET 8.512804 0.000000 -0.000000
											CHANNELS 3 Xrotation Yrotation Zrotation
											JOINT LeftHand
											{
												OFFSET 18.484802 0.000000 -0.000000
												CHANNELS 3 Xrotation Yrotation Zrotation
												End Site
												{
													OFFSET 0 0 0
												}
											}
										}
									}
								}
							}
						}
						JOINT RightShoulder_virtual
						{
							OFFSET 0.000000 0.000000 0.000000
							CHANNELS 3 Xrotation Yrotation Zrotation
							JOINT RightShoulder
							{
								OFFSET -2.196100 4.412496 0.070690
								CHANNELS 3 Xrotation Yrotation Zrotation
								JOINT RightShoulder_split
								{
									OFFSET -2.196100 4.412496 0.070690
									CHANNELS 3 Xrotation Yrotation Zrotation
									JOINT RightArm
									{
										OFFSET -8.771282 -2.981682 -0.094208
										CHANNELS 3 Xrotation Yrotation Zrotation
										JOINT RightForeArm
										{
											OFFSET -8.494598 0.000000 0.000000
											CHANNELS 3 Xrotation Yrotation Zrotation
											JOINT RightHand
											{
												OFFSET -18.483803 0.000000 0.000001
												CHANNELS 3 Xrotation Yrotation Zrotation
												End Site
												{
													OFFSET 0 0 0
												}
											}
										}
									}
								}
							}
						}
					}
				}
			}
		}
	}
}
MOTION
Frames: 9
Frame Time: 0.03333333
-0.000180 29.208742 0.369890 0.000000 0.000000 0.000000 15.896657 -56.848450 14.111418 -49.558575 8.756168 27.061662 47.258116 -11.778405 -5.935886 -4.787366 -1.652094 -3.711675 2.214165 0.018258 0.016618 0.000000 0.000000 0.000000 16.724285 -57.621648 15.041134 -27.496349 -7.468589 -20.117906 50.991225 8.910666 -2.029735 -38.403698 -8.313615 12.788452 7.805400 -0.574337 -0.631875 0.000000 0.000000 0.000000 17.540973 -59.584057 14.895263 5.602581 1.138933 -3.274284 -4.470805 5.229005 -3.845691 0.804462 -2.286653 0.503418 0.000000 0.000000 0.000000 -2.673639 4.736188 -3.256789 -15.536807 7.798311 8.473940 3.372675 34.559483 2.095794 0.000000 0.000000 0.000000 -3.324563 5.127091 -3.785167 -29.508620 6.344869 6.051504 -7.375723 6.259780 -6.814865 33.174000 -10.387651 -42.134829 -26.925261 -86.187152 -27.149988 0.000000 0.000000 0.000000 -3.813209 4.406469 -3.637507 1.934914 16.393552 11.271410 -5.760452 0.766258 -1.129130 13.056736 17.430438 59.151583 5.708561 67.055888 -8.175102 0.000000 0.000000 0.000000 
0.040266 29.234835 0.470367 0.000000 0.000000 0.000000 15.745085 -56.735834 13.900730 -49.645647 9.191474 27.281078 46.728476 -11.488171 -6.281051 -5.042871 -1.670367 -3.542365 2.239259 -0.009035 0.069655 0.000000 0.000000 0.000000 16.769453 -57.854796 14.954935 -27.094850 -7.565345 -19.958924 50.867380 8.894442 -2.021277 -38.646228 -8.341043 12.454303 7.879577 -0.615970 -0.534572 0.000000 0.000000 0.000000 17.811945 -59.657857 15.036800 5.608356 1.208156 -3.342772 -4.444216 5.255559 -3.905687 1.078222 -2.127510 0.449509 0.000000 0.000000 0.000000 -2.506742 4.808183 -3.361918 -14.998568 8.455395 8.230084 3.128685 34.434143 2.367770 0.000000 0.000000 0.000000 -3.023278 5.149156 -3.782308 -29.493556 5.839816 6.033118 -7.019947 5.311060 -6.392487 33.465212 -11.550261 -42.396999 -24.026775 -85.427307 -23.964050 0.000000 0.000000 0.000000 -3.669831 4.413153 -3.721178 1.983948 16.276657 11.586198 -6.431454 1.239826 -0.648974 13.895834 17.109868 58.984284 5.003739 66.930636 -7.473701 0.000000 0.000000 0.000000 
0.086965 29.272091 0.513521 0.000000 0.000000 0.000000 15.474065 -56.932984 13.555754 -49.336020 9.760188 27.594784 45.855366 -11.178146 -6.626315 -5.437407 -1.584074 -3.300284 2.396450 -0.060808 0.046887 0.000000 0.000000 0.000000 16.575773 -58.061731 14.604731 -26.472087 -7.790365 -19.629077 50.615038 8.873804 -2.047752 -39.200990 -8.425727 11.935142 7.648315 -0.677291 -0.384617 0.000000 0.000000 0.000000 17.544118 -59.586639 14.796761 5.753095 1.320368 -3.407768 -4.411413 5.436452 -4.049687 1.162299 -1.983916 0.499673 0.000000 0.000000 0.000000 -2.409488 5.005535 -3.596946 -14.506231 9.208908 7.949352 2.664960 34.306100 2.814048 0.000000 0.000000 0.000000 -2.803735 5.362629 -3.873918 -29.461430 4.827387 5.727162 -6.362209 4.287349 -6.034553 33.848051 -13.022119 -42.399813 -16.853191 -83.329114 -16.488080 0.000000 0.000000 0.000000 -3.377485 4.553198 -3.934099 1.985633 15.877495 11.889027 -6.528892 1.433289 -0.575071 15.012988 17.820462 58.126132 3.885276 67.125030 -6.605677 0.000000 0.000000 0.000000 
0.126367 29.301968 0.480091 0.000000 0.000000 0.000000 15.089522 -57.225104 13.097773 -48.809355 10.320240 27.930243 45.071237 -10.945487 -6.919880 -5.915900 -1.450917 -3.032345 2.692829 -0.130711 -0.048352 0.000000 0.000000 0.000000 16.188788 -58.193676 14.107480 -25.848549 -8.053497 -19.297566 50.123777 8.894872 -2.088114 -39.917258 -8.544625 11.425237 7.189803 -0.757993 -0.231339 0.000000 0.000000 0.000000 16.881622 -59.270742 14.271849 6.016773 1.382465 -3.416807 -4.361124 5.716243 -4.210698 0.902658 -1.832375 0.563939 0.000000 0.000000 0.000000 -2.394786 5.252848 -3.844623 -14.206237 10.077212 7.655694 2.212583 34.302030 3.128784 0.000000 0.000000 0.000000 -2.636150 5.664036 -4.011135 -29.406174 3.543225 5.194991 -5.886119 3.474897 -6.022147 34.084109 -14.465596 -42.394206 -11.486664 -80.117135 -10.782467 0.000000 0.000000 0.000000 -2.969328 4.782284 -4.197889 1.954996 15.305522 12.135142 -6.342520 1.364839 -0.715768 16.409748 19.293744 56.462992 2.495777 67.530429 -5.713033 0.000000 0.000000 0.000000 
0.138390 29.333143 0.402210 0.000000 0.000000 0.000000 14.560029 -57.466985 12.517834 -48.304423 10.750521 28.261958 44.660251 -10.811763 -7.189757 -6.324067 -1.345515 -2.802712 3.029637 -0.205691 -0.181028 0.000000 0.000000 0.000000 15.591847 -58.143092 13.518788 -25.281704 -8.281736 -19.060065 49.464326 9.039588 -2.138367 -40.507584 -8.644067 11.211444 6.574753 -0.845199 -0.130357 0.000000 0.000000 0.000000 15.972409 -58.641976 13.517190 6.342322 1.304519 -3.329542 -4.285226 6.014137 -4.329494 0.647757 -1.776546 0.343183 0.000000 0.000000 0.000000 -2.439493 5.462288 -3.980091 -13.922924 11.116505 7.356821 1.944547 34.532644 3.047608 0.000000 0.000000 0.000000 -2.541098 5.939964 -4.130769 -29.343784 2.175714 4.445177 -5.975099 3.127760 -6.453769 34.163411 -15.650839 -42.569799 -8.717582 -76.540111 -7.608722 0.000000 0.000000 0.000000 -2.535195 5.008101 -4.404525 1.950262 14.731871 12.289495 -6.005156 1.242173 -0.889060 18.067539 21.302254 53.997071 0.952979 67.974528 -4.815822 0.000000 0.000000 0.000000 
0.112431 29.351137 0.295515 0.000000 0.000000 0.000000 13.852199 -57.495364 11.806804 -48.079064 10.946842 28.643484 44.733176 -10.762014 -7.496100 -6.464938 -1.335411 -2.624265 3.181395 -0.282366 -0.288593 0.000000 0.000000 0.000000 14.839161 -57.967406 12.855180 -24.734519 -8.444861 -18.911513 48.838120 9.284261 -2.157731 -40.876053 -8.716260 11.334663 5.992017 -0.931038 -0.089004 0.000000 0.000000 0.000000 14.994451 -57.790285 12.662747 6.642176 1.007972 -3.121262 -4.229416 6.253934 -4.376699 0.636392 -1.542259 0.074792 0.000000 0.000000 0.000000 -2.545236 5.582214 -3.932521 -13.525031 12.322779 7.107373 2.073411 34.997466 2.426109 0.000000 0.000000 0.000000 -2.469698 6.129492 -4.187049 -29.285717 0.874145 3.600059 -6.420727 3.207076 -7.209905 34.253532 -16.374151 -42.975584 -7.370633 -73.412048 -5.860416 0.000000 0.000000 0.000000 -2.114404 5.187361 -4.487281 2.017743 14.334202 12.264029 -5.636290 1.248552 -0.960246 19.960482 23.633539 50.860153 -0.600723 68.319083 -3.935555 0.000000 0.000000 0.000000 
0.031780 29.349375 0.200766 0.000000 0.000000 0.000000 13.042789 -57.227020 10.991196 -48.257691 10.896417 29.108798 45.244416 -10.635395 -7.868521 -6.258319 -1.407575 -2.411740 3.187569 -0.359590 -0.372867 0.000000 0.000000 0.000000 13.950531 -57.698761 12.110030 -24.113088 -8.545268 -18.819726 48.405749 9.530815 -2.118060 -41.237807 -8.771670 11.542910 5.697924 -0.983866 -0.059785 0.000000 0.000000 0.000000 14.106355 -56.908699 11.784251 6.864162 0.578936 -2.818243 -4.141835 6.452714 -4.329038 0.846457 -1.210583 -0.024848 0.000000 0.000000 0.000000 -2.693024 5.655365 -3.659714 -12.983764 13.655645 6.995826 2.467193 35.611435 1.423437 0.000000 0.000000 0.000000 -2.385228 6.259135 -4.113160 -29.259697 -0.318307 2.932134 -7.242109 3.420711 -8.360499 34.614487 -16.439026 -43.529441 -7.111155 -71.237849 -5.202260 0.000000 0.000000 0.000000 -1.819779 5.305946 -4.420863 2.111493 14.190504 12.196662 -5.406144 1.277885 -0.822798 21.948210 26.168277 47.264492 -2.150223 68.221985 -2.948754 0.000000 0.000000 0.000000 
-0.102502 29.324875 0.142952 0.000000 0.000000 0.000000 12.192266 -56.689962 10.072529 -48.833510 10.590960 29.649609 45.991352 -10.308016 -8.280467 -5.775972 -1.558132 -2.032149 3.183191 -0.448029 -0.418816 0.000000 0.000000 0.000000 13.012712 -57.330238 11.252803 -23.372542 -8.594576 -18.739930 48.191701 9.731150 -2.012409 -41.867407 -8.774037 11.602162 5.770985 -0.975525 -0.013350 0.000000 0.000000 0.000000 13.402573 -56.070573 10.858359 7.013632 0.177077 -2.436832 -4.016351 6.688706 -4.214960 1.025399 -1.182231 0.061736 0.000000 0.000000 0.000000 -2.786691 5.775210 -3.236817 -12.268732 14.940757 7.095270 2.945523 36.034401 0.313178 0.000000 0.000000 0.000000 -2.354419 6.442535 -3.916550 -29.335703 -1.432432 2.544435 -8.147349 3.848205 -9.393149 35.259253 -16.033560 -44.002135 -7.373856 -70.185958 -5.154238 0.000000 0.000000 0.000000 -1.655235 5.449898 -4.255915 2.188586 14.239179 12.191053 -5.360700 1.228145 -0.601411 23.807862 28.739158 43.523687 -3.596127 67.078434 -1.872242 0.000000 0.000000 0.000000 
-0.282301 29.259974 0.168476 0.000000 0.000000 0.000000 11.306335 -55.911789 9.076393 -49.633031 10.067133 30.197007 46.713720 -9.812922 -8.681616 -5.241783 -1.817423 -1.579318 3.229388 -0.554827 -0.423110 0.000000 0.000000 0.000000 12.027964 -56.776583 10.243830 -22.538163 -8.515021 -18.762898 48.274640 9.929977 -1.862688 -42.734861 -8.761975 11.532224 6.166308 -0.886300 0.037483 0.000000 0.000000 0.000000 12.854578 -55.427665 9.922337 7.125718 -0.045304 -2.041079 -3.838440 7.044607 -4.078851 1.208928 -1.344027 0.315844 0.000000 0.000000 0.000000 -2.770223 6.049005 -2.801912 -11.615179 15.982491 7.460321 3.307330 35.878239 -0.495298 0.000000 0.000000 0.000000 -2.380211 6.819736 -3.682634 -29.565536 -2.573872 2.538432 -8.651504 4.326842 -10.014511 35.953272 -15.477702 -44.201627 -7.750870 -69.957386 -5.372543 0.000000 0.000000 0.000000 -1.540443 5.731099 -4.081130 2.188752 14.357700 12.376765 -5.590939 0.908150 -0.619009 25.287512 31.129840 40.023512 -4.631239 64.379963 -0.955615 0.000000 0.000000 0.000000 
